<?xml version="1.0" encoding="UTF-8" standalone="no"?>
<!-- Generator: Adobe Illustrator 19.0.0, SVG Export Plug-In . SVG Version: 6.00 Build 0)  -->

<svg
   xmlns:osb="http://www.openswatchbook.org/uri/2009/osb"
   xmlns:dc="http://purl.org/dc/elements/1.1/"
   xmlns:cc="http://creativecommons.org/ns#"
   xmlns:rdf="http://www.w3.org/1999/02/22-rdf-syntax-ns#"
   xmlns:svg="http://www.w3.org/2000/svg"
   xmlns="http://www.w3.org/2000/svg"
   xmlns:sodipodi="http://sodipodi.sourceforge.net/DTD/sodipodi-0.dtd"
   xmlns:inkscape="http://www.inkscape.org/namespaces/inkscape"
   version="1.1"
   id="Capa_1"
   x="0px"
   y="0px"
   viewBox="0 0 33.293 33.293"
   style="enable-background:new 0 0 33.293 33.293;"
   xml:space="preserve"
   inkscape:version="0.91 r13725"
   sodipodi:docname="compass.svg"><metadata
     id="metadata41"><rdf:RDF><cc:Work
         rdf:about=""><dc:format>image/svg+xml</dc:format><dc:type
           rdf:resource="http://purl.org/dc/dcmitype/StillImage" /></cc:Work></rdf:RDF></metadata><defs
     id="defs39"><linearGradient
       inkscape:collect="always"
       id="linearGradient5615"
       osb:paint="gradient"><stop
         style="stop-color:#a20000;stop-opacity:1;"
         offset="0"
         id="stop5617" /><stop
         style="stop-color:#a20000;stop-opacity:0;"
         offset="1"
         id="stop5619" /></linearGradient></defs><sodipodi:namedview
     pagecolor="#ffffff"
     bordercolor="#666666"
     borderopacity="1"
     objecttolerance="10"
     gridtolerance="10"
     guidetolerance="10"
     inkscape:pageopacity="0"
     inkscape:pageshadow="2"
     inkscape:window-width="1440"
     inkscape:window-height="778"
     id="namedview37"
     showgrid="false"
     inkscape:zoom="7.0885773"
     inkscape:cx="9.7320414"
     inkscape:cy="24.951504"
     inkscape:window-x="0"
     inkscape:window-y="1"
     inkscape:window-maximized="1"
     inkscape:current-layer="Capa_1" /><g
     id="g3"
     transform="translate(-0.28214459,0.14107198)"
     style="fill:#ffffff;fill-opacity:1;stroke:#ffffff;stroke-opacity:1"><path
       d="m 16.578,33.293 c -0.187,0 -0.362,-0.104 -0.448,-0.277 L 0.052,0.722 C -0.043,0.53 -0.005,0.298 0.147,0.146 0.299,-0.006 0.533,-0.042 0.723,0.052 l 32.293,16.076 c 0.207,0.103 0.316,0.335 0.265,0.56 -0.052,0.225 -0.252,0.386 -0.483,0.388 l -15.585,0.136 -0.134,15.585 c -0.002,0.231 -0.162,0.431 -0.388,0.483 -0.038,0.009 -0.076,0.013 -0.113,0.013 z M 1.612,1.612 16.096,30.703 16.217,16.712 c 0.002,-0.272 0.223,-0.493 0.496,-0.496 L 30.704,16.093 1.612,1.612 Z"
       id="path5"
       inkscape:connector-curvature="0"
       style="fill:#ffffff;fill-opacity:1;stroke:#ffffff;stroke-opacity:1" /></g><g
     id="g7"
     transform="translate(-0.14107203,2.3982245)" /><g
     id="g9"
     transform="translate(-0.14107203,2.3982245)" /><g
     id="g11"
     transform="translate(-0.14107203,2.3982245)" /><g
     id="g13"
     transform="translate(-0.14107203,2.3982245)" /><g
     id="g15"
     transform="translate(-0.14107203,2.3982245)" /><g
     id="g17"
     transform="translate(-0.14107203,2.3982245)" /><g
     id="g19"
     transform="translate(-0.14107203,2.3982245)" /><g
     id="g21"
     transform="translate(-0.14107203,2.3982245)" /><g
     id="g23"
     transform="translate(-0.14107203,2.3982245)" /><g
     id="g25"
     transform="translate(-0.14107203,2.3982245)" /><g
     id="g27"
     transform="translate(-0.14107203,2.3982245)" /><g
     id="g29"
     transform="translate(-0.14107203,2.3982245)" /><g
     id="g31"
     transform="translate(-0.14107203,2.3982245)" /><g
     id="g33"
     transform="translate(-0.14107203,2.3982245)" /><g
     id="g35"
     transform="translate(-0.14107203,2.3982245)" /><path
     style="fill:#a20000;fill-opacity:1;stroke:#918e95;stroke-width:0.141;stroke-opacity:0.62820512;stroke-miterlimit:4;stroke-dasharray:none;fill-rule:nonzero"
     d="M 15.721346,33.808724 C 15.234196,33.467512 -0.79193211,1.1966853 -0.79193211,0.55695526 c 0,-0.5929881 0.37237025,-0.93701595 0.99861233,-0.92260446 0.34149691,0.007859 5.24769888,2.3903862 16.77646378,8.1469097 17.671178,8.8235435 16.898272,8.3865035 16.506075,9.3333525 -0.09126,0.220316 -0.335055,0.465759 -0.54177,0.545429 -0.233848,0.09013 -3.184895,0.163336 -7.810972,0.193775 -4.089319,0.02691 -7.485628,0.09942 -7.547354,0.161137 -0.06172,0.06172 -0.131321,3.45563 -0.154659,7.542021 -0.02623,4.592638 -0.09721,7.570959 -0.185875,7.799452 -0.135725,0.349759 -0.635806,0.688392 -1.01659,0.688392 -0.09547,0 -0.325263,-0.106242 -0.510653,-0.236095 z m -0.04924,-17.701517 c 0.308363,-0.308211 0.367128,-0.311897 6.243985,-0.391713 L 27.848784,15.634919 15.221498,9.3221546 2.5942138,3.0093898 8.9069787,15.636529 l 6.3127643,12.62714 0.07054,-5.922661 c 0.06996,-5.874084 0.07309,-5.925214 0.381829,-6.233801 z"
     id="path4153"
     inkscape:connector-curvature="0" /><path
     style="fill:#cccccc;fill-opacity:1;fill-rule:nonzero;stroke:#918e95;stroke-width:0.01989116;stroke-miterlimit:4;stroke-dasharray:none;stroke-opacity:0.62820512"
     d="M 9.0400779,15.620786 C 5.7188515,8.9773244 3.0297151,3.5135344 3.0642191,3.4790303 3.0987232,3.4445262 8.5775753,6.1461213 15.239446,9.482575 l 12.112492,6.066279 -4.373233,0.0219 c -2.405278,0.01205 -4.99052,0.06315 -5.744982,0.113569 -2.16849,0.144908 -1.990466,-0.400284 -2.080222,6.370612 l -0.07483,5.64487 -6.0385931,-12.079021 z"
     id="path5625"
     inkscape:connector-curvature="0" /><path
     style="fill:#f9f9f9;fill-opacity:1;fill-rule:nonzero;stroke:#918e95;stroke-width:0.01989116;stroke-miterlimit:4;stroke-dasharray:none;stroke-opacity:0.62820512"
     d="M 15.904898,33.795784 C 15.631327,33.619974 12.500135,27.516776 7.23901,16.904568 1.8089947,5.9516916 -0.48836334,1.1752736 -0.60383619,0.59857224 c -0.084665,-0.42283912 0.24823072,-0.83425632 0.67503341,-0.83425632 0.43088435,0 4.08715978,1.76860678 17.61730678,8.52181078 12.721519,6.3495993 15.107507,7.5932423 15.589221,8.1255313 0.249128,0.275282 0.254202,0.332336 0.06028,0.677837 -0.163542,0.29137 -0.35517,0.39724 -0.841752,0.465047 -0.346504,0.04829 -3.797015,0.133468 -7.667804,0.18929 -3.870788,0.05582 -7.124262,0.134676 -7.229942,0.17523 -0.148776,0.05709 -0.194926,0.524056 -0.20447,2.068916 -0.0068,1.09735 -0.05515,4.556571 -0.107484,7.687157 l -0.09516,5.691974 -0.33136,0.268319 c -0.345872,0.280071 -0.681234,0.336374 -0.955132,0.160356 z m -0.602426,-5.570186 c 0.0067,-0.0194 0.06055,-2.638047 0.119653,-5.819221 0.0591,-3.181174 0.153749,-5.89014 0.210323,-6.019922 0.05657,-0.129783 0.209048,-0.280174 0.338831,-0.334204 0.129782,-0.05403 2.856427,-0.145388 6.059208,-0.203021 3.20278,-0.05763 5.860178,-0.141726 5.905328,-0.186875 C 27.980964,15.617205 22.290472,12.71641 15.290279,9.216142 8.2900858,5.7158742 2.5344249,2.8802482 2.4999221,2.914751 2.4126455,3.0020278 15.053154,28.260866 15.184109,28.260866 c 0.05839,0 0.111657,-0.01587 0.118363,-0.03527 z"
     id="path5627"
     inkscape:connector-curvature="0" /><path
     style="fill:#f9f9f9;fill-opacity:1;fill-rule:nonzero;stroke:#918e95;stroke-width:0.01989116;stroke-miterlimit:4;stroke-dasharray:none;stroke-opacity:0.62820512"
     d="M 9.1168641,15.71335 C 5.8395355,9.1613686 3.1580848,3.719729 3.1580848,3.6208169 c 0,-0.1000365 5.3366834,2.4933083 12.0263902,5.8441873 l 12.026391,6.0240268 -5.431273,0.09536 c -3.293104,0.05782 -5.584996,0.154959 -5.821751,0.246754 -0.214763,0.08327 -0.46277,0.327111 -0.551127,0.541874 -0.104965,0.255133 -0.190184,2.27303 -0.24586,5.821751 L 15.075643,27.626042 9.1168641,15.71335 Z"
     id="path5629"
     inkscape:connector-curvature="0" /></svg>