<?xml version="1.0" encoding="UTF-8" standalone="no"?>
<!-- Generator: Adobe Illustrator 19.0.0, SVG Export Plug-In . SVG Version: 6.00 Build 0)  -->

<svg
   xmlns:dc="http://purl.org/dc/elements/1.1/"
   xmlns:cc="http://creativecommons.org/ns#"
   xmlns:rdf="http://www.w3.org/1999/02/22-rdf-syntax-ns#"
   xmlns:svg="http://www.w3.org/2000/svg"
   xmlns="http://www.w3.org/2000/svg"
   xmlns:sodipodi="http://sodipodi.sourceforge.net/DTD/sodipodi-0.dtd"
   xmlns:inkscape="http://www.inkscape.org/namespaces/inkscape"
   version="1.1"
   id="Layer_1"
   x="0px"
   y="0px"
   viewBox="0 0 512 512"
   style="enable-background:new 0 0 512 512;"
   xml:space="preserve"
   inkscape:version="0.91 r13725"
   sodipodi:docname="wind-rose.svg"><metadata
     id="metadata53"><rdf:RDF><cc:Work
         rdf:about=""><dc:format>image/svg+xml</dc:format><dc:type
           rdf:resource="http://purl.org/dc/dcmitype/StillImage" /></cc:Work></rdf:RDF></metadata><defs
     id="defs51" /><sodipodi:namedview
     pagecolor="#ffffff"
     bordercolor="#666666"
     borderopacity="1"
     objecttolerance="10"
     gridtolerance="10"
     guidetolerance="10"
     inkscape:pageopacity="0"
     inkscape:pageshadow="2"
     inkscape:window-width="1440"
     inkscape:window-height="778"
     id="namedview49"
     showgrid="false"
     inkscape:zoom="0.4609375"
     inkscape:cx="256"
     inkscape:cy="256"
     inkscape:window-x="0"
     inkscape:window-y="1"
     inkscape:window-maximized="1"
     inkscape:current-layer="g3" /><g
     id="g3"><g
       id="g5"
       style="fill:#f2f2f2"><g
         id="g7"
         style="fill:#f2f2f2"><path
           d="M245.333,106.667c5.896,0,10.667-4.771,10.667-10.667V21.333h10.667c5.885,0,10.667,4.781,10.667,10.667v64     c0,5.896,4.771,10.667,10.667,10.667s10.667-4.771,10.667-10.667V32c0-17.646-14.354-32-32-32h-21.333     c-5.896,0-10.667,4.771-10.667,10.667V96C234.667,101.896,239.438,106.667,245.333,106.667z"
           id="path9"
           style="fill:#f2f2f2" /><path
           d="M266.667,426.667H288c5.896,0,10.667-4.771,10.667-10.667c0-5.896-4.771-10.667-10.667-10.667h-21.333     c-17.646,0-32,14.354-32,32c0,17.646,14.354,32,32,32c5.885,0,10.667,4.781,10.667,10.667c0,5.885-4.781,10.667-10.667,10.667     h-21.333c-5.896,0-10.667,4.771-10.667,10.667c0,5.896,4.771,10.667,10.667,10.667h21.333c17.646,0,32-14.354,32-32     c0-17.646-14.354-32-32-32c-5.885,0-10.667-4.781-10.667-10.667C256,431.448,260.781,426.667,266.667,426.667z"
           id="path11"
           style="fill:#f2f2f2" /><path
           d="M501.333,288h-32v-21.333h21.333c5.896,0,10.667-4.771,10.667-10.667s-4.771-10.667-10.667-10.667h-21.333V224h32     c5.896,0,10.667-4.771,10.667-10.667c0-5.896-4.771-10.667-10.667-10.667h-42.667c-5.896,0-10.667,4.771-10.667,10.667v85.333     c0,5.896,4.771,10.667,10.667,10.667h42.667c5.896,0,10.667-4.771,10.667-10.667C512,292.771,507.229,288,501.333,288z"
           id="path13"
           style="fill:#f2f2f2" /><path
           d="M96,202.667c-5.896,0-10.667,4.771-10.667,10.667v50.104l-10.667,16l-10.667-16v-50.104     c0-5.896-4.771-10.667-10.667-10.667c-5.896,0-10.667,4.771-10.667,10.667v50.104l-10.667,16l-10.667-16v-50.104     c0-5.896-4.771-10.667-10.667-10.667C4.771,202.667,0,207.438,0,213.333v53.333c0,2.104,0.625,4.167,1.792,5.917l21.333,32     c1.979,2.969,5.313,4.75,8.875,4.75s6.896-1.781,8.875-4.75l12.458-18.688l12.458,18.688c1.979,2.969,5.313,4.75,8.875,4.75     s6.896-1.781,8.875-4.75l21.333-32c1.167-1.75,1.792-3.813,1.792-5.917v-53.333C106.667,207.438,101.896,202.667,96,202.667z"
           id="path15"
           style="fill:#f2f2f2" /><path
           d="M396.396,245.479l-89.44-14.685l52.586-52.586c4.167-4.167,4.167-10.917,0-15.083s-10.917-4.167-15.083,0l-52.586,52.586     l-14.685-89.44c-0.844-5.156-5.292-8.938-10.521-8.938c-5.229,0-9.677,3.781-10.521,8.938l-14.685,89.44l-52.586-52.586     c-4.167-4.167-10.917-4.167-15.083,0c-4.167,4.167-4.167,10.917,0,15.083l52.586,52.586l-89.44,14.685     C131.781,246.323,128,250.771,128,256s3.781,9.677,8.938,10.521l89.44,14.685l-52.586,52.586c-4.167,4.167-4.167,10.917,0,15.083     c2.083,2.083,4.813,3.125,7.542,3.125c2.729,0,5.458-1.042,7.542-3.125l52.586-52.586l14.685,89.44     c0.844,5.156,5.292,8.938,10.521,8.938c5.229,0,9.677-3.781,10.521-8.938l14.685-89.44l52.586,52.586     c2.083,2.083,4.813,3.125,7.542,3.125c2.729,0,5.458-1.042,7.542-3.125c4.167-4.167,4.167-10.917,0-15.083l-52.586-52.586     l89.44-14.685c5.156-0.844,8.938-5.292,8.938-10.521S401.552,246.323,396.396,245.479z"
           id="path17"
           style="fill:#f2f2f2" /></g></g></g><g
     id="g19" /><g
     id="g21" /><g
     id="g23" /><g
     id="g25" /><g
     id="g27" /><g
     id="g29" /><g
     id="g31" /><g
     id="g33" /><g
     id="g35" /><g
     id="g37" /><g
     id="g39" /><g
     id="g41" /><g
     id="g43" /><g
     id="g45" /><g
     id="g47" /></svg>